<mxfile host="app.diagrams.net" modified="2023-03-01T09:38:19.867Z" agent="5.0 (Macintosh; Intel Mac OS X 10_15_7) AppleWebKit/537.36 (KHTML, like Gecko) Chrome/110.0.0.0 Safari/537.36" etag="wIzVhpIoSy4Emx-VQZCP" version="20.8.23" type="github">
  <diagram name="Trang-1" id="Dna0exL9Sc0_nZnTrbU0">
    <mxGraphModel dx="2812" dy="2357" grid="1" gridSize="10" guides="1" tooltips="1" connect="1" arrows="1" fold="1" page="1" pageScale="1" pageWidth="827" pageHeight="1169" math="0" shadow="0">
      <root>
        <mxCell id="0" />
        <mxCell id="1" parent="0" />
        <mxCell id="FnkpJSt_Z25aJlGgbgEB-22" value="Quy trình sản xuất theo Đơn hàng" style="swimlane;childLayout=stackLayout;resizeParent=1;resizeParentMax=0;startSize=20;html=1;" vertex="1" parent="1">
          <mxGeometry x="310" y="-1020" width="1305" height="1910" as="geometry" />
        </mxCell>
        <mxCell id="FnkpJSt_Z25aJlGgbgEB-23" value="" style="swimlane;startSize=20;html=1;" vertex="1" parent="FnkpJSt_Z25aJlGgbgEB-22">
          <mxGeometry y="20" width="650" height="1890" as="geometry" />
        </mxCell>
        <mxCell id="FnkpJSt_Z25aJlGgbgEB-28" value="Tạo đơn" style="shape=manualInput;whiteSpace=wrap;html=1;" vertex="1" parent="FnkpJSt_Z25aJlGgbgEB-23">
          <mxGeometry x="100" y="87.5" width="80" height="70" as="geometry" />
        </mxCell>
        <mxCell id="FnkpJSt_Z25aJlGgbgEB-37" value="Định mức nguyên vật liệu" style="shape=manualInput;whiteSpace=wrap;html=1;" vertex="1" parent="FnkpJSt_Z25aJlGgbgEB-23">
          <mxGeometry x="60" y="280" width="110" height="90" as="geometry" />
        </mxCell>
        <mxCell id="FnkpJSt_Z25aJlGgbgEB-24" value="Kế toán" style="swimlane;startSize=20;html=1;" vertex="1" parent="FnkpJSt_Z25aJlGgbgEB-23">
          <mxGeometry x="240" width="410" height="1890" as="geometry" />
        </mxCell>
        <mxCell id="FnkpJSt_Z25aJlGgbgEB-29" value="Duyệt" style="rhombus;whiteSpace=wrap;html=1;" vertex="1" parent="FnkpJSt_Z25aJlGgbgEB-24">
          <mxGeometry x="105" y="80" width="80" height="85" as="geometry" />
        </mxCell>
        <mxCell id="FnkpJSt_Z25aJlGgbgEB-35" value="Không" style="text;html=1;strokeColor=none;fillColor=none;align=center;verticalAlign=middle;whiteSpace=wrap;rounded=0;" vertex="1" parent="FnkpJSt_Z25aJlGgbgEB-24">
          <mxGeometry x="-50" y="30" width="114" height="30" as="geometry" />
        </mxCell>
        <mxCell id="FnkpJSt_Z25aJlGgbgEB-40" value="Duyệt" style="text;html=1;strokeColor=none;fillColor=none;align=center;verticalAlign=middle;whiteSpace=wrap;rounded=0;" vertex="1" parent="FnkpJSt_Z25aJlGgbgEB-24">
          <mxGeometry x="150" y="165" width="60" height="30" as="geometry" />
        </mxCell>
        <mxCell id="FnkpJSt_Z25aJlGgbgEB-114" style="edgeStyle=orthogonalEdgeStyle;rounded=0;orthogonalLoop=1;jettySize=auto;html=1;" edge="1" parent="FnkpJSt_Z25aJlGgbgEB-24" source="FnkpJSt_Z25aJlGgbgEB-44">
          <mxGeometry relative="1" as="geometry">
            <mxPoint x="95" y="440" as="targetPoint" />
          </mxGeometry>
        </mxCell>
        <mxCell id="FnkpJSt_Z25aJlGgbgEB-44" value="Duyệt" style="rhombus;whiteSpace=wrap;html=1;" vertex="1" parent="FnkpJSt_Z25aJlGgbgEB-24">
          <mxGeometry x="55" y="281.25" width="80" height="87.5" as="geometry" />
        </mxCell>
        <mxCell id="FnkpJSt_Z25aJlGgbgEB-47" value="Không" style="text;html=1;strokeColor=none;fillColor=none;align=center;verticalAlign=middle;whiteSpace=wrap;rounded=0;" vertex="1" parent="FnkpJSt_Z25aJlGgbgEB-24">
          <mxGeometry x="90" y="410" width="60" height="30" as="geometry" />
        </mxCell>
        <mxCell id="FnkpJSt_Z25aJlGgbgEB-50" value="Duyệt" style="text;html=1;strokeColor=none;fillColor=none;align=center;verticalAlign=middle;whiteSpace=wrap;rounded=0;" vertex="1" parent="FnkpJSt_Z25aJlGgbgEB-24">
          <mxGeometry x="215" y="330" width="60" height="30" as="geometry" />
        </mxCell>
        <mxCell id="FnkpJSt_Z25aJlGgbgEB-60" value="Duyệt lệnh SX" style="rhombus;whiteSpace=wrap;html=1;" vertex="1" parent="FnkpJSt_Z25aJlGgbgEB-24">
          <mxGeometry x="85" y="625" width="130" height="130" as="geometry" />
        </mxCell>
        <mxCell id="FnkpJSt_Z25aJlGgbgEB-97" value="Tạo hoá đơn&lt;br&gt;Vat, lưu trữ thông tin KH" style="rhombus;whiteSpace=wrap;html=1;" vertex="1" parent="FnkpJSt_Z25aJlGgbgEB-24">
          <mxGeometry x="110" y="1680" width="154" height="130" as="geometry" />
        </mxCell>
        <mxCell id="FnkpJSt_Z25aJlGgbgEB-102" value="Quản lý giá thành sản xuất&lt;br&gt;" style="shape=manualInput;whiteSpace=wrap;html=1;" vertex="1" parent="FnkpJSt_Z25aJlGgbgEB-24">
          <mxGeometry x="110" y="1520" width="160" height="120" as="geometry" />
        </mxCell>
        <mxCell id="FnkpJSt_Z25aJlGgbgEB-30" value="" style="edgeStyle=orthogonalEdgeStyle;rounded=0;orthogonalLoop=1;jettySize=auto;html=1;" edge="1" parent="FnkpJSt_Z25aJlGgbgEB-23" source="FnkpJSt_Z25aJlGgbgEB-28" target="FnkpJSt_Z25aJlGgbgEB-29">
          <mxGeometry relative="1" as="geometry" />
        </mxCell>
        <mxCell id="FnkpJSt_Z25aJlGgbgEB-33" style="edgeStyle=orthogonalEdgeStyle;rounded=0;orthogonalLoop=1;jettySize=auto;html=1;exitX=0.5;exitY=0;exitDx=0;exitDy=0;entryX=1;entryY=0;entryDx=0;entryDy=0;" edge="1" parent="FnkpJSt_Z25aJlGgbgEB-23" source="FnkpJSt_Z25aJlGgbgEB-29" target="FnkpJSt_Z25aJlGgbgEB-28">
          <mxGeometry relative="1" as="geometry">
            <mxPoint x="160" y="30" as="targetPoint" />
            <Array as="points">
              <mxPoint x="384" y="30" />
              <mxPoint x="180" y="30" />
            </Array>
          </mxGeometry>
        </mxCell>
        <mxCell id="FnkpJSt_Z25aJlGgbgEB-45" value="" style="edgeStyle=orthogonalEdgeStyle;rounded=0;orthogonalLoop=1;jettySize=auto;html=1;" edge="1" parent="FnkpJSt_Z25aJlGgbgEB-23" source="FnkpJSt_Z25aJlGgbgEB-37" target="FnkpJSt_Z25aJlGgbgEB-44">
          <mxGeometry relative="1" as="geometry" />
        </mxCell>
        <mxCell id="FnkpJSt_Z25aJlGgbgEB-101" style="edgeStyle=orthogonalEdgeStyle;rounded=0;orthogonalLoop=1;jettySize=auto;html=1;exitX=0.505;exitY=0.097;exitDx=0;exitDy=0;exitPerimeter=0;" edge="1" parent="FnkpJSt_Z25aJlGgbgEB-23" source="FnkpJSt_Z25aJlGgbgEB-100">
          <mxGeometry relative="1" as="geometry">
            <mxPoint x="340" y="1604" as="targetPoint" />
            <Array as="points">
              <mxPoint x="91" y="1604" />
            </Array>
          </mxGeometry>
        </mxCell>
        <mxCell id="FnkpJSt_Z25aJlGgbgEB-100" value="Quản lý công nợ/ Thanh toán" style="shape=manualInput;whiteSpace=wrap;html=1;" vertex="1" parent="FnkpJSt_Z25aJlGgbgEB-23">
          <mxGeometry x="20" y="1687.5" width="140" height="115" as="geometry" />
        </mxCell>
        <mxCell id="FnkpJSt_Z25aJlGgbgEB-99" style="edgeStyle=orthogonalEdgeStyle;rounded=0;orthogonalLoop=1;jettySize=auto;html=1;" edge="1" parent="FnkpJSt_Z25aJlGgbgEB-23" source="FnkpJSt_Z25aJlGgbgEB-97" target="FnkpJSt_Z25aJlGgbgEB-100">
          <mxGeometry relative="1" as="geometry">
            <mxPoint x="120" y="1745" as="targetPoint" />
          </mxGeometry>
        </mxCell>
        <mxCell id="FnkpJSt_Z25aJlGgbgEB-109" value="Phòng Kinh doanh" style="text;html=1;strokeColor=none;fillColor=none;align=center;verticalAlign=middle;whiteSpace=wrap;rounded=0;" vertex="1" parent="FnkpJSt_Z25aJlGgbgEB-23">
          <mxGeometry x="54" width="140" height="30" as="geometry" />
        </mxCell>
        <mxCell id="FnkpJSt_Z25aJlGgbgEB-110" style="edgeStyle=orthogonalEdgeStyle;rounded=0;orthogonalLoop=1;jettySize=auto;html=1;entryX=0.664;entryY=0.111;entryDx=0;entryDy=0;entryPerimeter=0;" edge="1" parent="FnkpJSt_Z25aJlGgbgEB-23" source="FnkpJSt_Z25aJlGgbgEB-29" target="FnkpJSt_Z25aJlGgbgEB-37">
          <mxGeometry relative="1" as="geometry">
            <Array as="points">
              <mxPoint x="385" y="220" />
              <mxPoint x="133" y="220" />
            </Array>
          </mxGeometry>
        </mxCell>
        <mxCell id="FnkpJSt_Z25aJlGgbgEB-116" style="edgeStyle=orthogonalEdgeStyle;rounded=0;orthogonalLoop=1;jettySize=auto;html=1;exitX=0;exitY=0.75;exitDx=0;exitDy=0;entryX=0.582;entryY=1.006;entryDx=0;entryDy=0;entryPerimeter=0;" edge="1" parent="FnkpJSt_Z25aJlGgbgEB-23" source="FnkpJSt_Z25aJlGgbgEB-47" target="FnkpJSt_Z25aJlGgbgEB-37">
          <mxGeometry relative="1" as="geometry" />
        </mxCell>
        <mxCell id="FnkpJSt_Z25aJlGgbgEB-25" value="Kế hoạch" style="swimlane;startSize=20;html=1;" vertex="1" parent="FnkpJSt_Z25aJlGgbgEB-22">
          <mxGeometry x="650" y="20" width="200" height="1890" as="geometry" />
        </mxCell>
        <mxCell id="FnkpJSt_Z25aJlGgbgEB-52" value="" style="edgeStyle=orthogonalEdgeStyle;rounded=0;orthogonalLoop=1;jettySize=auto;html=1;" edge="1" parent="FnkpJSt_Z25aJlGgbgEB-25" source="FnkpJSt_Z25aJlGgbgEB-48" target="FnkpJSt_Z25aJlGgbgEB-51">
          <mxGeometry relative="1" as="geometry" />
        </mxCell>
        <mxCell id="FnkpJSt_Z25aJlGgbgEB-48" value="Lệnh sản xuất" style="rhombus;whiteSpace=wrap;html=1;" vertex="1" parent="FnkpJSt_Z25aJlGgbgEB-25">
          <mxGeometry x="50" y="270" width="120" height="110" as="geometry" />
        </mxCell>
        <mxCell id="FnkpJSt_Z25aJlGgbgEB-51" value="Tổng hợp NVL cần" style="whiteSpace=wrap;html=1;" vertex="1" parent="FnkpJSt_Z25aJlGgbgEB-25">
          <mxGeometry x="50" y="485" width="120" height="60" as="geometry" />
        </mxCell>
        <mxCell id="FnkpJSt_Z25aJlGgbgEB-58" value="Theo dõi tiến độ mua NVL" style="whiteSpace=wrap;html=1;" vertex="1" parent="FnkpJSt_Z25aJlGgbgEB-25">
          <mxGeometry x="35" y="660" width="120" height="60" as="geometry" />
        </mxCell>
        <mxCell id="FnkpJSt_Z25aJlGgbgEB-26" value="Kho/ mua hàng" style="swimlane;startSize=20;html=1;" vertex="1" parent="FnkpJSt_Z25aJlGgbgEB-22">
          <mxGeometry x="850" y="20" width="265" height="1890" as="geometry" />
        </mxCell>
        <mxCell id="FnkpJSt_Z25aJlGgbgEB-55" value="" style="edgeStyle=orthogonalEdgeStyle;rounded=0;orthogonalLoop=1;jettySize=auto;html=1;" edge="1" parent="FnkpJSt_Z25aJlGgbgEB-26" source="FnkpJSt_Z25aJlGgbgEB-53" target="FnkpJSt_Z25aJlGgbgEB-54">
          <mxGeometry relative="1" as="geometry" />
        </mxCell>
        <mxCell id="FnkpJSt_Z25aJlGgbgEB-53" value="Đơn mua nguyên VẬT LIỆU" style="shape=manualInput;whiteSpace=wrap;html=1;" vertex="1" parent="FnkpJSt_Z25aJlGgbgEB-26">
          <mxGeometry x="147.19" y="465" width="85" height="100" as="geometry" />
        </mxCell>
        <mxCell id="FnkpJSt_Z25aJlGgbgEB-54" value="Phiếu nhập NVL" style="shape=manualInput;whiteSpace=wrap;html=1;" vertex="1" parent="FnkpJSt_Z25aJlGgbgEB-26">
          <mxGeometry x="126.56" y="645" width="126.25" height="90" as="geometry" />
        </mxCell>
        <mxCell id="FnkpJSt_Z25aJlGgbgEB-63" value="Xuất NVL(Theo Lệnh sx)" style="shape=manualInput;whiteSpace=wrap;html=1;" vertex="1" parent="FnkpJSt_Z25aJlGgbgEB-26">
          <mxGeometry x="50" y="780" width="120" height="100" as="geometry" />
        </mxCell>
        <mxCell id="FnkpJSt_Z25aJlGgbgEB-78" value="Kho sản phầm lỗi" style="whiteSpace=wrap;html=1;" vertex="1" parent="FnkpJSt_Z25aJlGgbgEB-26">
          <mxGeometry x="19.999999999999993" y="1130" width="120" height="60" as="geometry" />
        </mxCell>
        <mxCell id="FnkpJSt_Z25aJlGgbgEB-81" value="Kho phế phẩm" style="rounded=0;whiteSpace=wrap;html=1;" vertex="1" parent="FnkpJSt_Z25aJlGgbgEB-26">
          <mxGeometry x="20" y="970" width="120" height="60" as="geometry" />
        </mxCell>
        <mxCell id="FnkpJSt_Z25aJlGgbgEB-89" value="" style="edgeStyle=orthogonalEdgeStyle;rounded=0;orthogonalLoop=1;jettySize=auto;html=1;" edge="1" parent="FnkpJSt_Z25aJlGgbgEB-26" source="FnkpJSt_Z25aJlGgbgEB-86">
          <mxGeometry relative="1" as="geometry">
            <mxPoint x="107.19000000000005" y="1557.5" as="targetPoint" />
          </mxGeometry>
        </mxCell>
        <mxCell id="FnkpJSt_Z25aJlGgbgEB-86" value="Nhập kho thành phẩm" style="rhombus;whiteSpace=wrap;html=1;" vertex="1" parent="FnkpJSt_Z25aJlGgbgEB-26">
          <mxGeometry x="40" y="1330" width="134.38" height="125" as="geometry" />
        </mxCell>
        <mxCell id="FnkpJSt_Z25aJlGgbgEB-82" value="Không đạt" style="text;html=1;align=center;verticalAlign=middle;resizable=0;points=[];autosize=1;strokeColor=none;fillColor=none;" vertex="1" parent="FnkpJSt_Z25aJlGgbgEB-26">
          <mxGeometry x="185" y="1245" width="80" height="30" as="geometry" />
        </mxCell>
        <mxCell id="FnkpJSt_Z25aJlGgbgEB-94" value="" style="edgeStyle=orthogonalEdgeStyle;rounded=0;orthogonalLoop=1;jettySize=auto;html=1;" edge="1" parent="FnkpJSt_Z25aJlGgbgEB-26" source="FnkpJSt_Z25aJlGgbgEB-92">
          <mxGeometry relative="1" as="geometry">
            <mxPoint x="107.20000000000027" y="1680.0146826293203" as="targetPoint" />
          </mxGeometry>
        </mxCell>
        <mxCell id="FnkpJSt_Z25aJlGgbgEB-92" value="Tồn kho thành phẩm" style="rounded=0;whiteSpace=wrap;html=1;" vertex="1" parent="FnkpJSt_Z25aJlGgbgEB-26">
          <mxGeometry x="47.190000000000055" y="1550" width="120" height="60" as="geometry" />
        </mxCell>
        <mxCell id="FnkpJSt_Z25aJlGgbgEB-95" style="edgeStyle=orthogonalEdgeStyle;rounded=0;orthogonalLoop=1;jettySize=auto;html=1;" edge="1" parent="FnkpJSt_Z25aJlGgbgEB-26">
          <mxGeometry relative="1" as="geometry">
            <mxPoint x="-340" y="1745" as="targetPoint" />
            <mxPoint x="40.779999999999745" y="1745" as="sourcePoint" />
          </mxGeometry>
        </mxCell>
        <mxCell id="FnkpJSt_Z25aJlGgbgEB-98" value="Xuất cho giao hàng" style="shape=manualInput;whiteSpace=wrap;html=1;" vertex="1" parent="FnkpJSt_Z25aJlGgbgEB-26">
          <mxGeometry x="42.5" y="1670" width="180" height="140" as="geometry" />
        </mxCell>
        <mxCell id="FnkpJSt_Z25aJlGgbgEB-27" value="Bộ phận sản xuất" style="swimlane;startSize=20;html=1;" vertex="1" parent="FnkpJSt_Z25aJlGgbgEB-22">
          <mxGeometry x="1115" y="20" width="190" height="1890" as="geometry" />
        </mxCell>
        <mxCell id="FnkpJSt_Z25aJlGgbgEB-67" value="" style="edgeStyle=orthogonalEdgeStyle;rounded=0;orthogonalLoop=1;jettySize=auto;html=1;" edge="1" parent="FnkpJSt_Z25aJlGgbgEB-27" source="FnkpJSt_Z25aJlGgbgEB-64" target="FnkpJSt_Z25aJlGgbgEB-66">
          <mxGeometry relative="1" as="geometry" />
        </mxCell>
        <mxCell id="FnkpJSt_Z25aJlGgbgEB-64" value="Các công đoạn sản xuất" style="whiteSpace=wrap;html=1;" vertex="1" parent="FnkpJSt_Z25aJlGgbgEB-27">
          <mxGeometry x="60" y="800" width="120" height="60" as="geometry" />
        </mxCell>
        <mxCell id="FnkpJSt_Z25aJlGgbgEB-69" value="" style="edgeStyle=orthogonalEdgeStyle;rounded=0;orthogonalLoop=1;jettySize=auto;html=1;" edge="1" parent="FnkpJSt_Z25aJlGgbgEB-27" source="FnkpJSt_Z25aJlGgbgEB-66" target="FnkpJSt_Z25aJlGgbgEB-68">
          <mxGeometry relative="1" as="geometry" />
        </mxCell>
        <mxCell id="FnkpJSt_Z25aJlGgbgEB-66" value="Đang sơn, đang đánh bóng, đang xử lý...vvv" style="whiteSpace=wrap;html=1;" vertex="1" parent="FnkpJSt_Z25aJlGgbgEB-27">
          <mxGeometry x="60" y="940" width="120" height="60" as="geometry" />
        </mxCell>
        <mxCell id="FnkpJSt_Z25aJlGgbgEB-77" value="" style="edgeStyle=orthogonalEdgeStyle;rounded=0;orthogonalLoop=1;jettySize=auto;html=1;" edge="1" parent="FnkpJSt_Z25aJlGgbgEB-27" source="FnkpJSt_Z25aJlGgbgEB-68" target="FnkpJSt_Z25aJlGgbgEB-76">
          <mxGeometry relative="1" as="geometry" />
        </mxCell>
        <mxCell id="FnkpJSt_Z25aJlGgbgEB-68" value="Hoàn thành lệnh sản xuất" style="whiteSpace=wrap;html=1;" vertex="1" parent="FnkpJSt_Z25aJlGgbgEB-27">
          <mxGeometry x="60" y="1080" width="120" height="60" as="geometry" />
        </mxCell>
        <mxCell id="FnkpJSt_Z25aJlGgbgEB-83" style="edgeStyle=orthogonalEdgeStyle;rounded=0;orthogonalLoop=1;jettySize=auto;html=1;" edge="1" parent="FnkpJSt_Z25aJlGgbgEB-27" source="FnkpJSt_Z25aJlGgbgEB-76">
          <mxGeometry relative="1" as="geometry">
            <mxPoint x="-80" y="1400" as="targetPoint" />
            <Array as="points">
              <mxPoint x="120" y="1400" />
            </Array>
          </mxGeometry>
        </mxCell>
        <mxCell id="FnkpJSt_Z25aJlGgbgEB-76" value="Kiểm tra chất lượng" style="rhombus;whiteSpace=wrap;html=1;" vertex="1" parent="FnkpJSt_Z25aJlGgbgEB-27">
          <mxGeometry x="52.5" y="1210" width="135" height="120" as="geometry" />
        </mxCell>
        <mxCell id="FnkpJSt_Z25aJlGgbgEB-84" value="Đạt" style="text;html=1;align=center;verticalAlign=middle;resizable=0;points=[];autosize=1;strokeColor=none;fillColor=none;" vertex="1" parent="FnkpJSt_Z25aJlGgbgEB-27">
          <mxGeometry x="75" y="1370" width="40" height="30" as="geometry" />
        </mxCell>
        <mxCell id="FnkpJSt_Z25aJlGgbgEB-49" value="" style="edgeStyle=orthogonalEdgeStyle;rounded=0;orthogonalLoop=1;jettySize=auto;html=1;" edge="1" parent="FnkpJSt_Z25aJlGgbgEB-22" source="FnkpJSt_Z25aJlGgbgEB-44" target="FnkpJSt_Z25aJlGgbgEB-48">
          <mxGeometry relative="1" as="geometry" />
        </mxCell>
        <mxCell id="FnkpJSt_Z25aJlGgbgEB-56" value="" style="edgeStyle=orthogonalEdgeStyle;rounded=0;orthogonalLoop=1;jettySize=auto;html=1;" edge="1" parent="FnkpJSt_Z25aJlGgbgEB-22" source="FnkpJSt_Z25aJlGgbgEB-51" target="FnkpJSt_Z25aJlGgbgEB-53">
          <mxGeometry relative="1" as="geometry" />
        </mxCell>
        <mxCell id="FnkpJSt_Z25aJlGgbgEB-59" value="" style="edgeStyle=orthogonalEdgeStyle;rounded=0;orthogonalLoop=1;jettySize=auto;html=1;" edge="1" parent="FnkpJSt_Z25aJlGgbgEB-22" source="FnkpJSt_Z25aJlGgbgEB-54" target="FnkpJSt_Z25aJlGgbgEB-58">
          <mxGeometry relative="1" as="geometry" />
        </mxCell>
        <mxCell id="FnkpJSt_Z25aJlGgbgEB-61" value="" style="edgeStyle=orthogonalEdgeStyle;rounded=0;orthogonalLoop=1;jettySize=auto;html=1;" edge="1" parent="FnkpJSt_Z25aJlGgbgEB-22" source="FnkpJSt_Z25aJlGgbgEB-58" target="FnkpJSt_Z25aJlGgbgEB-60">
          <mxGeometry relative="1" as="geometry" />
        </mxCell>
        <mxCell id="FnkpJSt_Z25aJlGgbgEB-62" style="edgeStyle=orthogonalEdgeStyle;rounded=0;orthogonalLoop=1;jettySize=auto;html=1;" edge="1" parent="FnkpJSt_Z25aJlGgbgEB-22" source="FnkpJSt_Z25aJlGgbgEB-60" target="FnkpJSt_Z25aJlGgbgEB-63">
          <mxGeometry relative="1" as="geometry">
            <mxPoint x="945" y="850" as="targetPoint" />
            <Array as="points">
              <mxPoint x="390" y="850" />
            </Array>
          </mxGeometry>
        </mxCell>
        <mxCell id="FnkpJSt_Z25aJlGgbgEB-65" value="" style="edgeStyle=orthogonalEdgeStyle;rounded=0;orthogonalLoop=1;jettySize=auto;html=1;" edge="1" parent="FnkpJSt_Z25aJlGgbgEB-22" source="FnkpJSt_Z25aJlGgbgEB-63" target="FnkpJSt_Z25aJlGgbgEB-64">
          <mxGeometry relative="1" as="geometry" />
        </mxCell>
        <mxCell id="FnkpJSt_Z25aJlGgbgEB-79" value="" style="edgeStyle=orthogonalEdgeStyle;rounded=0;orthogonalLoop=1;jettySize=auto;html=1;" edge="1" parent="FnkpJSt_Z25aJlGgbgEB-22" source="FnkpJSt_Z25aJlGgbgEB-76" target="FnkpJSt_Z25aJlGgbgEB-78">
          <mxGeometry relative="1" as="geometry" />
        </mxCell>
        <mxCell id="FnkpJSt_Z25aJlGgbgEB-80" value="" style="edgeStyle=orthogonalEdgeStyle;rounded=0;orthogonalLoop=1;jettySize=auto;html=1;" edge="1" parent="FnkpJSt_Z25aJlGgbgEB-22" source="FnkpJSt_Z25aJlGgbgEB-68" target="FnkpJSt_Z25aJlGgbgEB-81">
          <mxGeometry relative="1" as="geometry">
            <mxPoint x="1130" y="1050" as="targetPoint" />
          </mxGeometry>
        </mxCell>
        <mxCell id="FnkpJSt_Z25aJlGgbgEB-108" value="duyệt" style="text;html=1;strokeColor=none;fillColor=none;align=center;verticalAlign=middle;whiteSpace=wrap;rounded=0;" vertex="1" parent="1">
          <mxGeometry x="770" y="-190" width="60" height="30" as="geometry" />
        </mxCell>
      </root>
    </mxGraphModel>
  </diagram>
</mxfile>
